PathFileType	4	(X/Y/Z)	pose_F01_0-90.trc
DataRate	CameraRate	NumFrames	NumMarkers	Units	OrigDataRate	OrigDataStartFrame	OrigNumFrames
30	30	5	21	m	30	0	90
Frame#	Time	CHip			RHip			RKnee			RAnkle			RBigToe			RSmallToe			RHeel			LHip			LKnee			LAnkle			LBigToe			LSmallToe			LHeel			Neck			Nose			RShoulder			RElbow			RWrist			LShoulder			LElbow			LWrist			
		X1	Y1	Z1	X2	Y2	Z2	X3	Y3	Z3	X4	Y4	Z4	X5	Y5	Z5	X6	Y6	Z6	X7	Y7	Z7	X8	Y8	Z8	X9	Y9	Z9	X10	Y10	Z10	X11	Y11	Z11	X12	Y12	Z12	X13	Y13	Z13	X14	Y14	Z14	X15	Y15	Z15	X16	Y16	Z16	X17	Y17	Z17	X18	Y18	Z18	X19	Y19	Z19	X20	Y20	Z20	X21	Y21	Z21	
0	0.0	-0.21390649638244405	1.8826636650265405	-0.5481357863360709	-0.22607622008107572	1.8775130975158225	-0.4863525994248959	-0.21621373655023207	1.7299972850295364	-0.4762711458436115	-0.22724729646877614	1.5722420817479708	-0.43226792251727897	-0.25971542425796035	1.5895219243307244	-0.2806357299020028	-0.25887322229915255	1.6006684810485294	-0.25855841219636067	-0.22522772155578105	1.5633346899166953	-0.4551889000256211	-0.2025997995027323	1.8823210135802984	-0.6234033395488208	-0.19553811515189884	1.7282804908484313	-0.612662915506953	-0.19396424524240277	1.5764782439234315	-0.6146877203037671	-0.22283836264496534	1.5286728858513152	-0.6173892844744793	-0.20846408987894938	1.5324791350982712	-0.6373142751479761	-0.18130978091975167	1.5615481529364161	-0.6095117023281622	-0.2096642253052607	2.0528252714284836	-0.5693928056851058	-0.23276277876567164	2.1323823479757142	-0.567667833747133	-0.22481678701149507	2.048918670585663	-0.4776260822476913	-0.21840465338637893	1.9549720366344694	-0.45668200032791845	-0.23423229376841262	1.8792592976051548	-0.38679949390935897	-0.19245452259157403	2.058437663837201	-0.6723936860231264	-0.18762437684916897	1.972691948116967	-0.6854757017670402	-0.17798957331906204	1.8923967921598976	-0.7110384872973347
1	0.03333333333333333	-0.21470977302771577	1.8814141052608777	-0.5509948389942676	-0.22582579194356006	1.877302000498822	-0.48626342407955864	-0.21833401050316956	1.73142316556512	-0.4741808919772571	-0.22554205461578059	1.5766842408956654	-0.43457613454022465	-0.25971542425796035	1.5895219243307244	-0.2806357299020028	-0.25887322229915255	1.6006684810485294	-0.25855841219636067	-0.22247161408003105	1.5674563305490548	-0.45446827631348474	-0.2023847737824239	1.8822507037751084	-0.6233586894531545	-0.1962600215027903	1.7297415656589443	-0.6162101823304111	-0.19426562713223305	1.5750671650131067	-0.6140631446106598	-0.22297890201893514	1.5258482636166262	-0.6170683769034926	-0.2097570239895746	1.5311104657464285	-0.6397874635981203	-0.18385932738589664	1.5613431370774287	-0.6064448053568655	-0.20966334639875814	2.052831909792432	-0.5694216432559807	-0.23283316476804147	2.1299888363064174	-0.5672659028229498	-0.2247973812086564	2.0489181008245883	-0.47765904448369023	-0.21939859398709857	1.9560388746237392	-0.4517278217813446	-0.23502408055854895	1.8817399322009154	-0.38181625889628673	-0.19245786028770953	2.058478430204231	-0.672400038848739	-0.18551369524860298	1.9715283753118045	-0.6873996178851904	-0.1802589944675372	1.8897731850506452	-0.708526534993084
2	0.06666666666666667	-0.21551304967298748	1.880164545495215	-0.5538538916524643	-0.2255753638060444	1.8770909034818213	-0.4861742487342214	-0.22045428445610704	1.7328490461007036	-0.4720906381109027	-0.22383681276278503	1.58112640004336	-0.4368843465631703	-0.25971542425796035	1.5895219243307244	-0.2806357299020028	-0.25887322229915255	1.6006684810485294	-0.25855841219636067	-0.21971550660428105	1.5715779711814142	-0.45374765260134836	-0.2021697480621155	1.8821803939699184	-0.6233140393574883	-0.19698192785368174	1.7312026404694574	-0.6197574491538693	-0.19456700902206334	1.573656086102782	-0.6134385689175526	-0.22311944139290493	1.5230236413819371	-0.6167474693325059	-0.21104995810019983	1.5297417963945859	-0.6422606520482645	-0.1864088738520416	1.5611381212184412	-0.6033779083855688	-0.2096624674922556	2.0528385481563802	-0.5694504808268556	-0.2329035507704113	2.1275953246371206	-0.5668639718987665	-0.2247779754058177	2.0489175310635135	-0.47769200671968914	-0.2203925345878182	1.957105712613009	-0.4467736432347707	-0.2358158673486853	1.884220566796676	-0.3768330238832145	-0.19246119798384503	2.058519196571261	-0.6724063916743516	-0.183403013648037	1.970364802506642	-0.6893235340033407	-0.18252841561601238	1.8871495779413927	-0.7060145826888334
3	0.1	-0.2163163263182592	1.8789149857295522	-0.5567129443106611	-0.22532493566852874	1.8768798064648207	-0.4860850733888841	-0.22257455840904453	1.7342749266362871	-0.47000038424454826	-0.22213157090978947	1.5855685591910547	-0.439192558586116	-0.25971542425796035	1.5895219243307244	-0.2806357299020028	-0.25887322229915255	1.6006684810485294	-0.25855841219636067	-0.21695939912853104	1.5756996118137736	-0.453027028889212	-0.20195472234180709	1.8821100841647285	-0.6232693892618221	-0.1977038342045732	1.7326637152799704	-0.6233047159773275	-0.19486839091189362	1.5722450071924572	-0.6128139932244453	-0.22325998076687473	1.520199019147248	-0.6164265617615192	-0.21234289221082506	1.5283731270427432	-0.6447338404984088	-0.18895842031818658	1.5609331053594537	-0.6003110114142721	-0.20966158858575304	2.0528451865203285	-0.5694793183977305	-0.23297393677278114	2.125201812967824	-0.5664620409745832	-0.22475856960297902	2.0489169613024387	-0.47772496895568806	-0.22138647518853785	1.9581725506022787	-0.44181946468819683	-0.23660765413882162	1.8867012013924367	-0.37184978887014225	-0.19246453567998054	2.058559962938291	-0.6724127444999641	-0.181292332047471	1.9692012297014796	-0.6912474501214909	-0.18479783676448755	1.8845259708321402	-0.7035026303845828
4	0.13333333333333333	-0.21622436031418302	1.8800982910779875	-0.5568624023284031	-0.22521922322013746	1.8780584406694325	-0.48627514346654055	-0.22029358921221953	1.7314414791841959	-0.4720017689819363	-0.2228572007360901	1.584471208671873	-0.43386993071346897	-0.25971542425796035	1.5895219243307244	-0.2806357299020028	-0.25887322229915255	1.6006684810485294	-0.25855841219636067	-0.2177025778065321	1.5744122869681905	-0.44769938192046765	-0.20196260016331102	1.8845784324557062	-0.6236043268990075	-0.19688500852104376	1.7326361976907607	-0.6200393478447436	-0.1957767625588344	1.5722004433260108	-0.6159653538382327	-0.22459842249727277	1.5213943436794315	-0.6106954970382192	-0.21387570806201378	1.529980830471652	-0.6390889396085185	-0.1874993881189612	1.5620878399466702	-0.6063049063318137	-0.20847031149234446	2.0541145596875787	-0.5744781675047873	-0.23289969856880877	2.126292611217207	-0.5663175298379733	-0.22465650803259984	2.050051903008976	-0.4777011038369766	-0.22038636716743934	1.9595382571442799	-0.4471984250071352	-0.2347858228043165	1.8867354719050342	-0.37404514951267565	-0.19032718150222672	2.0599857173798104	-0.6750962714166192	-0.1821066720626009	1.9694038202532558	-0.6943682028122792	-0.1848564539894705	1.8844683530477349	-0.703403077802702
